solid
facet normal 0 -1 0
outer loop
vertex 3 1.5 1.5
vertex 2 1.5 2.5
vertex 2 1.5 1.5
endloop
endfacet
facet normal -0 -0 -1
outer loop
vertex 3 1.5 1.5
vertex 2 2.5 1.5
vertex 3 2.5 1.5
endloop
endfacet
facet normal 0 1 -0
outer loop
vertex 2 2.5 1.5
vertex 3 2.5 2.5
vertex 3 2.5 1.5
endloop
endfacet
facet normal -1 -0 -0
outer loop
vertex 2 2.5 1.5
vertex 2 1.5 2.5
vertex 2 2.5 2.5
endloop
endfacet
facet normal 0 -0 1
outer loop
vertex 3 2.5 2.5
vertex 2 1.5 2.5
vertex 3 1.5 2.5
endloop
endfacet
facet normal 1 -0 0
outer loop
vertex 3 1.5 1.5
vertex 3 2.5 2.5
vertex 3 1.5 2.5
endloop
endfacet
facet normal -0 -1 -0
outer loop
vertex 2 1.5 2.5
vertex 3 1.5 1.5
vertex 3 1.5 2.5
endloop
endfacet
facet normal 0 0 -1
outer loop
vertex 2 2.5 1.5
vertex 3 1.5 1.5
vertex 2 1.5 1.5
endloop
endfacet
facet normal 1 0 -0
outer loop
vertex 3 2.5 2.5
vertex 3 1.5 1.5
vertex 3 2.5 1.5
endloop
endfacet
facet normal -0 0 1
outer loop
vertex 2 1.5 2.5
vertex 3 2.5 2.5
vertex 2 2.5 2.5
endloop
endfacet
facet normal -0 1 0
outer loop
vertex 3 2.5 2.5
vertex 2 2.5 1.5
vertex 2 2.5 2.5
endloop
endfacet
facet normal -1 0 0
outer loop
vertex 2 1.5 2.5
vertex 2 2.5 1.5
vertex 2 1.5 1.5
endloop
endfacet
endsolid
